<svg id="Layer_1" data-name="Layer 1" xmlns="http://www.w3.org/2000/svg" viewBox="0 0 135.74 145.87"><path d="M131.63,54.68a72.19,72.19,0,0,0-3.31-7.53A8.5,8.5,0,0,0,116,44h0a8.52,8.52,0,0,0-2.77,11,50.61,50.61,0,0,1,5.53,23c0,.55,0,1.1,0,1.65a51,51,0,0,1-44.21,48.81,50.34,50.34,0,0,1-6.66.44c-28.19,0-51.39-23.64-50.89-51.83A51,51,0,0,1,66.22,27.14l-.31,10.32a1.71,1.71,0,0,0,2.67,1.46l25-17.17A1.7,1.7,0,0,0,93.64,19L69.74.36A1.71,1.71,0,0,0,67,1.66l-.25,8.48A66.74,66.74,0,0,0,40.32,16,68,68,0,0,0,5.88,50.45,66.82,66.82,0,0,0,0,78a67.6,67.6,0,0,0,6.66,29.32.27.27,0,0,0,.09.2c.32.61.61,1.21.93,1.79A68,68,0,0,0,61,145.52a.54.54,0,0,1,.23,0q3.3.31,6.69.32a67.92,67.92,0,0,0,63.76-91.19Z"/><path d="M64.09,71.14a8.13,8.13,0,0,1-1.88.23c-3.13,0-5.66-1.69-5.66-3.77s2.53-3.78,5.66-3.78a8.28,8.28,0,0,1,.86.06c-1.31-4.52-3.72-7.61-6.52-7.61C52.38,56.27,49,63,49,71.37s3.38,15.1,7.55,15.1,7.55-6.76,7.55-15.1C64.1,71.3,64.09,71.22,64.09,71.14Zm-9.43,4a1.89,1.89,0,1,1,1.89-1.89A1.89,1.89,0,0,1,54.66,75.15Z"/><path d="M86.74,71.14a8.13,8.13,0,0,1-1.88.23c-3.13,0-5.66-1.69-5.66-3.77s2.53-3.78,5.66-3.78a8.28,8.28,0,0,1,.86.06c-1.31-4.52-3.72-7.61-6.52-7.61-4.17,0-7.55,6.76-7.55,15.1S75,86.47,79.2,86.47s7.55-6.76,7.55-15.1C86.75,71.3,86.74,71.22,86.74,71.14Zm-9.43,4a1.89,1.89,0,1,1,1.89-1.89A1.89,1.89,0,0,1,77.31,75.15Z"/><path d="M69.59,104.07A53.71,53.71,0,0,1,44.73,98a4.35,4.35,0,1,1,4-7.72A45.6,45.6,0,0,0,62.39,94.8a47,47,0,0,0,25-2.92,4.35,4.35,0,1,1,3.25,8.06A56.75,56.75,0,0,1,69.59,104.07Z"/></svg>