<svg id="Layer_1" data-name="Layer 1" xmlns="http://www.w3.org/2000/svg" viewBox="0 0 220.09 127.84"><defs><style>.cls-1{fill:#7ccdff;}.cls-2{fill:#9385ff;}</style></defs><path class="cls-1" d="M38.48,123.9l-9.94-15.65a13.3,13.3,0,0,0,3.6-2.28,15.93,15.93,0,0,0,4.17-5.74,18,18,0,0,0,1.45-7.16A16.64,16.64,0,0,0,36.6,87a18.2,18.2,0,0,0-3.27-5.35,16.48,16.48,0,0,0-5-3.89,14.3,14.3,0,0,0-6.47-1.47H0v50.88H8.88V110H19.35l10.33,16.21.64,1H40.57Zm-13-23.35A5.72,5.72,0,0,1,22,101.64H8.88v-17h12.7a6,6,0,0,1,3.54,1.09,8.88,8.88,0,0,1,3.77,7.33A10.47,10.47,0,0,1,28,97.41,7.78,7.78,0,0,1,25.49,100.55Z"/><path class="cls-1" d="M74.39,98.19a19.48,19.48,0,0,0-6.66-7.13,18.24,18.24,0,0,0-10-2.75A18.63,18.63,0,0,0,47.83,91,19.13,19.13,0,0,0,41,98.14a19.89,19.89,0,0,0-2.47,9.77A20.74,20.74,0,0,0,40,115.57a20.05,20.05,0,0,0,4,6.33,18.73,18.73,0,0,0,13.84,5.94,20.29,20.29,0,0,0,7-1.21,17.85,17.85,0,0,0,5.78-3.48A15.14,15.14,0,0,0,74.35,118l1-2.27L73,115.1l-3.88-1-1.79-.49-.74,1.71a7.24,7.24,0,0,1-3.25,3.46A10.5,10.5,0,0,1,58,120.14a9.45,9.45,0,0,1-5-1.36,10.91,10.91,0,0,1-3.8-3.78,11.82,11.82,0,0,1-1.36-3.24H76.29l.4-1.63a5,5,0,0,0,.13-1.26v-1A19.89,19.89,0,0,0,74.39,98.19ZM47.7,104.26a11.5,11.5,0,0,1,1.33-3.2,10.49,10.49,0,0,1,3.74-3.69,10.46,10.46,0,0,1,10.12,0A10.43,10.43,0,0,1,66.67,101,11.26,11.26,0,0,1,68,104.26Z"/><path class="cls-1" d="M8.88,8.56V92H0V2.08c1.49,1.17,4.39,3.4,8.54,6.24Z"/><path class="cls-2" d="M94.43,107.09a18.24,18.24,0,0,0,.57,1.77C94.78,108.28,94.6,107.69,94.43,107.09Z"/><path class="cls-2" d="M94.43,107.09a18.24,18.24,0,0,0,.57,1.77C94.78,108.28,94.6,107.69,94.43,107.09Z"/><path class="cls-2" d="M129.74,112.38,126,110.44l-2-1-1,2a11.56,11.56,0,0,1-3.17,4.09,14.64,14.64,0,0,1-4.42,2.42,14.81,14.81,0,0,1-4.61.8,12.81,12.81,0,0,1-5.85-1.36,15.7,15.7,0,0,1-4.8-3.75A17.68,17.68,0,0,1,97,108.11a18.66,18.66,0,0,1-1.16-6.55,20.06,20.06,0,0,1,1-6.21,17.67,17.67,0,0,1,2.91-5.47,14.29,14.29,0,0,1,4.62-3.82,13.72,13.72,0,0,1,6.32-1.39,15.74,15.74,0,0,1,4.44.67,12.62,12.62,0,0,1,4.11,2.19,11.48,11.48,0,0,1,3.14,4.07l1,2.12,2-1.24,3.55-2.2,1.62-1-.82-1.73a19.31,19.31,0,0,0-7.19-8.08,21.12,21.12,0,0,0-11.65-3.15,23.09,23.09,0,0,0-10.16,2.18,22.51,22.51,0,0,0-7.55,5.85,26.52,26.52,0,0,0-6.18,17,27.47,27.47,0,0,0,6.48,17.56,24.37,24.37,0,0,0,7.46,5.93,20.59,20.59,0,0,0,9.62,2.28,24.49,24.49,0,0,0,7.82-1.34,23.39,23.39,0,0,0,7.27-4,16.64,16.64,0,0,0,5-6.66l.76-1.82Zm-35.31-5.29c.17.6.35,1.19.57,1.77A18.24,18.24,0,0,1,94.43,107.09Z"/><path class="cls-2" d="M166,105v21.72h-8.66V106c0-3.3-.54-5.74-1.61-7.27a4.5,4.5,0,0,0-4-2,8.25,8.25,0,0,0-3.89,1,11.58,11.58,0,0,0-3.61,2.88,10.47,10.47,0,0,0-2.1,3.81v22.31h-8.67V75.35h8.67V92.68A17.24,17.24,0,0,1,144.45,91a16.37,16.37,0,0,1,8.77-2.54,12.86,12.86,0,0,1,5.89,1.26,10.32,10.32,0,0,1,4.13,3.74,16.4,16.4,0,0,1,2.14,5.24A30.09,30.09,0,0,1,166,105Z"/><rect class="cls-2" x="171.09" y="88.84" width="8.66" height="37.91"/><rect class="cls-2" x="171.09" y="75.35" width="8.66" height="10.73"/><path class="cls-2" d="M202.54,125.37l-1.64.69a16.46,16.46,0,0,1-3.45,1,18.46,18.46,0,0,1-3.44.36,8.21,8.21,0,0,1-8.66-8.69V75.35H194v41.87a4.42,4.42,0,0,0,.23,1.75,1.2,1.2,0,0,0,.73.2,9,9,0,0,0,1.86-.2c.71-.16,1.32-.32,1.84-.47l2.22-.69.5,2.27.77,3.55Z"/><path class="cls-1" d="M172.88,25.73c0,.25,0,.5,0,.75a150.52,150.52,0,0,1-24.73,9.29h0a13.77,13.77,0,0,1-4.37-10,14.57,14.57,0,0,1,29.13,0Z"/><path class="cls-2" d="M220.09,125.37l-1.63.69a16.64,16.64,0,0,1-3.45,1,18.74,18.74,0,0,1-3.46.36,8.21,8.21,0,0,1-8.65-8.69V13.28c-2.22,3.1-4.86,6.58-7.9,10.25-16.33,19.67-44.18,44.73-81.23,46.4a101.36,101.36,0,0,1-34.31-4.74L86.7,44.27,88,40.41a5.19,5.19,0,0,0,.17-.65c1.24.17,2.48.32,3.74.45a149.34,149.34,0,0,0,20.14.88l-4.38,3.48a4.88,4.88,0,1,0,6.07,7.65l14.57-11.55.92-.73.31-.28h0q2.88-.42,5.79-1h0c2.6-.47,5.21-1,7.85-1.66,1.65-.4,3.28-.83,4.88-1.27h0a150.52,150.52,0,0,0,24.73-9.29,158.85,158.85,0,0,0,22.14-13l.67-.47A162.22,162.22,0,0,0,210.77,1l.8-1V117.22a4.54,4.54,0,0,0,.22,1.75,1.2,1.2,0,0,0,.73.2,9.22,9.22,0,0,0,1.87-.2c.7-.16,1.31-.32,1.83-.47l2.22-.69.5,2.27.77,3.55Z"/><path class="cls-2" d="M78.48,38.15,70.22,62C40,50.63,20.28,30.25,8.88,15.15l-.34-.45C4.8,9.73,2,5.35,0,2.08c1.49,1.17,4.39,3.4,8.54,6.24l.34.24C21.91,17.43,46.81,31.93,78.48,38.15Z"/><path class="cls-1" d="M92,40.21c-1.26-.13-2.5-.28-3.74-.45a5.19,5.19,0,0,1-.17.65L86.7,44.27,79.46,65.19l-.95,2.74a4.68,4.68,0,0,1-6,2.89l-.38-.13a4.68,4.68,0,0,1-2.89-6L70.22,62l8.26-23.85h0l.32-.94a4.68,4.68,0,0,1,6-2.89l.39.14a5.22,5.22,0,0,1,.59.25h0l.6.26a9.22,9.22,0,0,1,2,1.37A29.36,29.36,0,0,1,92,40.21Z"/><path class="cls-1" d="M135.38,38.7q-2.91.54-5.79,1h0l-.31.28-.92.73L113.78,52.22a4.88,4.88,0,1,1-6.07-7.65l4.38-3.48h0l11.1-8.81a4.87,4.87,0,0,1,6,0l1,1.05Z"/><path class="cls-1" d="M130.22,33.31l-1-1.05a4.34,4.34,0,0,1,.84.82A1.88,1.88,0,0,1,130.22,33.31Z"/></svg>