<svg id="Layer_1" data-name="Layer 1" xmlns="http://www.w3.org/2000/svg" viewBox="0 0 220.08 127.84"><defs><style>.cls-1{fill:#fff;}</style></defs><path class="cls-1" d="M67.72,91.06a18.23,18.23,0,0,0-10-2.75A18.61,18.61,0,0,0,47.83,91,19.08,19.08,0,0,0,41,98.14a19.88,19.88,0,0,0-2.46,9.77A20.54,20.54,0,0,0,40,115.57a20.2,20.2,0,0,0,4,6.33,18.77,18.77,0,0,0,13.84,5.94,20.21,20.21,0,0,0,7-1.21,17.74,17.74,0,0,0,5.78-3.48A15,15,0,0,0,74.34,118l1-2.27-2.38-.65-3.88-1-1.79-.49-.73,1.71a7.25,7.25,0,0,1-3.26,3.45A10.39,10.39,0,0,1,58,120.14a9.41,9.41,0,0,1-5-1.36,10.91,10.91,0,0,1-3.8-3.78,12.15,12.15,0,0,1-1.37-3.24H76.29l.4-1.63a5.55,5.55,0,0,0,.13-1.26v-1a19.79,19.79,0,0,0-2.44-9.67A19.48,19.48,0,0,0,67.72,91.06Zm-20,13.2a10.93,10.93,0,0,1,1.33-3.2,10.49,10.49,0,0,1,3.74-3.69,9.91,9.91,0,0,1,5-1.3,10,10,0,0,1,5.08,1.31A10.48,10.48,0,0,1,66.66,101,11,11,0,0,1,68,104.26Z"/><path class="cls-1" d="M126,110.44l-2-1-1,2a11.34,11.34,0,0,1-3.17,4.09,14.59,14.59,0,0,1-4.41,2.42,14.85,14.85,0,0,1-4.62.79,12.77,12.77,0,0,1-5.84-1.35,15.46,15.46,0,0,1-4.8-3.75A17.71,17.71,0,0,1,97,108.11a18.7,18.7,0,0,1-1.16-6.55,20.36,20.36,0,0,1,1-6.21,18.1,18.1,0,0,1,2.91-5.47,14.33,14.33,0,0,1,4.63-3.82,13.68,13.68,0,0,1,6.31-1.39,15.68,15.68,0,0,1,4.44.67,12.52,12.52,0,0,1,4.11,2.19,11.62,11.62,0,0,1,3.15,4.07l1,2.12,2-1.24,3.55-2.2,1.62-1-.81-1.73a19.33,19.33,0,0,0-7.2-8.08,21.11,21.11,0,0,0-11.64-3.15,23.06,23.06,0,0,0-10.16,2.18,22.55,22.55,0,0,0-7.56,5.85,26.43,26.43,0,0,0-6.17,17,27.1,27.1,0,0,0,1.67,9.3,27.76,27.76,0,0,0,4.8,8.26,24.37,24.37,0,0,0,7.46,5.93,20.63,20.63,0,0,0,9.63,2.28,24.39,24.39,0,0,0,7.81-1.34,23.55,23.55,0,0,0,7.28-4,16.9,16.9,0,0,0,5-6.66l.75-1.82-1.75-.9Z"/><path class="cls-1" d="M163.24,93.45a10.32,10.32,0,0,0-4.13-3.74,12.93,12.93,0,0,0-5.9-1.26A16.47,16.47,0,0,0,144.44,91a19,19,0,0,0-2.32,1.7V75.35h-8.67v51.4h8.67V104.44a10.62,10.62,0,0,1,2.1-3.81,11.5,11.5,0,0,1,3.62-2.88,8.19,8.19,0,0,1,3.89-1,4.47,4.47,0,0,1,4,2c1.07,1.53,1.61,4,1.61,7.27v20.8H166V105a30.06,30.06,0,0,0-.63-6.34A16.17,16.17,0,0,0,163.24,93.45Z"/><rect class="cls-1" x="171.08" y="88.84" width="8.66" height="37.91"/><rect class="cls-1" x="171.08" y="75.35" width="8.66" height="10.73"/><path class="cls-1" d="M201.38,120.08l-.5-2.27-2.21.69c-.52.15-1.14.31-1.84.47a9.07,9.07,0,0,1-1.87.2,1.22,1.22,0,0,1-.73-.2,4.54,4.54,0,0,1-.22-1.75V75.35h-8.67V118.7a8.22,8.22,0,0,0,8.66,8.69,19.45,19.45,0,0,0,3.45-.36,16.64,16.64,0,0,0,3.45-1l1.64-.69-.38-1.74Z"/><path class="cls-1" d="M219.71,123.63l-.77-3.55-.5-2.27-2.23.69c-.51.15-1.12.31-1.83.47a9,9,0,0,1-1.86.2,1.24,1.24,0,0,1-.74-.2,4.79,4.79,0,0,1-.22-1.75V0l-.82,1a164.24,164.24,0,0,1-15.07,12l-.68.47a158.71,158.71,0,0,1-22.13,13h0c0-.26,0-.51,0-.76a14.58,14.58,0,0,0-29.14,0,13.75,13.75,0,0,0,4.39,10h0c-1.61.44-3.23.87-4.89,1.27-2.63.63-5.24,1.19-7.85,1.66h0l-5.22-5.46-.11-.16a4.71,4.71,0,0,0-.81-.8l0,0h0a4.89,4.89,0,0,0-6,0l-11.1,8.81h0A149.34,149.34,0,0,1,92,40.21a30.07,30.07,0,0,0-3.54-3.86A9.43,9.43,0,0,0,86.35,35a7.48,7.48,0,0,0-.75-.31,4.91,4.91,0,0,0-.46-.22l-.38-.13a4.68,4.68,0,0,0-6,2.89l-.33.94h0C46.81,31.93,21.91,17.43,8.88,8.56l-.34-.24C4.39,5.48,1.48,3.25,0,2.08v125.1H8.88V110H19.35l10.33,16.21.63,1H40.56l-2.08-3.29-9.94-15.64a13.46,13.46,0,0,0,3.6-2.28,15.9,15.9,0,0,0,4.16-5.74,17.87,17.87,0,0,0,1.46-7.16A16.64,16.64,0,0,0,36.6,87a18.11,18.11,0,0,0-3.28-5.35,16.36,16.36,0,0,0-5-3.89,14.27,14.27,0,0,0-6.46-1.48h-13V15.15C20.27,30.25,40,50.63,70.22,62h0l-1,2.73a4.69,4.69,0,0,0,2.89,6l.39.13a4.67,4.67,0,0,0,6-2.89l1-2.75h0a101.16,101.16,0,0,0,34.31,4.75c37.05-1.67,64.91-26.73,81.23-46.4,3-3.67,5.68-7.14,7.9-10.25V118.7a8.21,8.21,0,0,0,8.66,8.69A19.54,19.54,0,0,0,215,127a16.46,16.46,0,0,0,3.45-1l1.63-.69Zm-198.14-39a6,6,0,0,1,3.55,1.09,8.77,8.77,0,0,1,2.74,3.13,8.68,8.68,0,0,1,1,4.2A10.47,10.47,0,0,1,28,97.41a7.76,7.76,0,0,1-2.47,3.14A5.73,5.73,0,0,1,22,101.64H8.88v-17Zm195.27,35.89h0l.77,3.55Z"/></svg>